<svg width="40" height="40" viewBox="0 0 40 40" fill="none" xmlns="http://www.w3.org/2000/svg">
<rect x="1" y="1" width="38" height="38" fill="white" stroke="#252D35" stroke-width="2"/>
<path d="M26.7883 22.8117C25.7426 21.7661 24.4981 20.992 23.1402 20.5235C24.5945 19.5218 25.55 17.8455 25.55 15.9499C25.55 12.8896 23.0603 10.3999 20 10.3999C16.9397 10.3999 14.45 12.8896 14.45 15.9499C14.45 17.8455 15.4055 19.5218 16.8598 20.5235C15.502 20.992 14.2574 21.7661 13.2118 22.8117C11.3986 24.6249 10.4 27.0357 10.4 29.5999H11.9C11.9 25.1335 15.5336 21.4999 20 21.4999C24.4664 21.4999 28.1 25.1335 28.1 29.5999H29.6C29.6 27.0357 28.6014 24.6249 26.7883 22.8117ZM20 19.9999C17.7668 19.9999 15.95 18.1831 15.95 15.9499C15.95 13.7167 17.7668 11.8999 20 11.8999C22.2332 11.8999 24.05 13.7167 24.05 15.9499C24.05 18.1831 22.2332 19.9999 20 19.9999Z" fill="#252D35"/>
</svg>
