<svg width="88" height="31" viewBox="0 0 88 31" fill="none" xmlns="http://www.w3.org/2000/svg">
<path d="M0 0H4.07947V31H0V0Z" fill="#252D35"/>
<path d="M9.3245 5.84906H13.404V22.8113H9.3245V5.84906Z" fill="#252D35"/>
<path d="M18.649 10.5283H22.7285V26.9057H18.649V10.5283Z" fill="#252D35"/>
<path d="M27.9735 7.60377H32.053V18.1321H27.9735V7.60377Z" fill="#252D35"/>
<path d="M37.298 11.6981H41.3775V20.4717H37.298V11.6981Z" fill="#252D35"/>
<path d="M46.6225 9.35849H50.702V15.2075H46.6225V9.35849Z" fill="#252D35"/>
<path d="M55.947 12.8679H60.0265V16.9623H55.947V12.8679Z" fill="#252D35"/>
<path d="M65.2715 13.4528H69.351V15.7925H65.2715V13.4528Z" fill="#252D35"/>
<path d="M74.596 13.4528H78.6755V15.7925H74.596V13.4528Z" fill="#252D35"/>
<path d="M83.9205 13.4528H88V15.7925H83.9205V13.4528Z" fill="#252D35"/>
</svg>
